<?xml version="1.0" encoding="iso-8859-1"?>
<!DOCTYPE svg PUBLIC "-//W3C//DTD SVG 1.0//EN" "http://www.w3.org/TR/2001/REC-SVG-20010904/DTD/svg10.dtd">
<!-- Creator: CorelDRAW -->
<svg xmlns="http://www.w3.org/2000/svg" xmlns:odm="http://product.corel.com/CGS/11/cddns/" xml:space="preserve" width="450px" height="415px" style="shape-rendering:geometricPrecision; text-rendering:geometricPrecision; image-rendering:optimizeQuality; fill-rule:evenodd"
     viewBox="0 0 4500 4150">
 <defs>
  <style type="text/css">
   <![CDATA[
    .str0 {stroke:#000000;stroke-width:8}
    .fil1 {fill:none}
    .fil3 {fill:#FFFFFF}
    .fil4 {fill:#1111C4}
    .fil2 {fill:#C41111}
    .fil0 {fill:#DBDBDB}
   ]]>
  </style>
 </defs>
 <g id="Layer 1">
  <path class="fil0" d="M763 1213l230 0 231 0 199 115 200 116 115 199 115 200 0 230 0 231 -115 199 -115 200 -200 115 -199 116 -231 0 -230 0 -200 -116 -200 -115 -115 -200 -115 -199 0 -231 0 -230 115 -200 115 -199 200 -116 200 -115z"/>
  <path class="fil0" d="M1390 4021l231 0 230 0 200 -115 199 -116 116 -199 115 -200 0 -230 0 -231 -115 -199 -116 -200 -199 -115 -200 -115 -230 0 -231 0 -199 115 -200 115 -115 200 -115 199 0 231 0 230 115 200 115 199 200 116 199 115z"/>
  <path class="fil0" d="M2646 4021l231 0 230 0 200 -115 200 -116 115 -199 115 -200 0 -230 0 -231 -115 -199 -115 -200 -200 -115 -200 -115 -230 0 -231 0 -199 115 -200 115 -115 200 -115 199 0 231 0 230 115 200 115 199 200 116 199 115z"/>
  <path class="fil0" d="M1390 124l231 0 230 0 200 115 199 115 116 200 115 199 0 231 0 230 -115 200 -116 200 -199 115 -200 115 -230 0 -231 0 -199 -115 -200 -115 -115 -200 -115 -200 0 -230 0 -231 115 -199 115 -200 200 -115 199 -115z"/>
  <path class="fil0" d="M2646 124l231 0 230 0 200 115 200 115 115 200 115 199 0 231 0 230 -115 200 -115 200 -200 115 -200 115 -230 0 -231 0 -199 -115 -200 -115 -115 -200 -115 -200 0 -230 0 -231 115 -199 115 -200 200 -115 199 -115z"/>
  <path class="fil0" d="M3275 1213l230 0 231 0 199 115 200 116 115 199 115 200 0 230 0 231 -115 199 -115 200 -200 115 -199 116 -231 0 -230 0 -200 -116 -199 -115 -116 -200 -115 -199 0 -231 0 -230 115 -200 116 -199 199 -116 200 -115z"/>
  <path class="fil0" d="M2018 1213l231 0 230 0 200 115 200 116 115 199 115 200 0 230 0 231 -115 199 -115 200 -200 115 -200 116 -230 -1 -231 1 -199 -116 -200 -115 -115 -200 -115 -199 0 -231 0 -230 115 -200 115 -199 200 -116 199 -115z"/>
  <path class="fil1 str0" d="M763 1213l230 0 231 0 199 115 200 116 115 199 115 200 0 230 0 231 -115 199 -115 200 -200 115 -199 116 -231 0 -230 0 -200 -116 -200 -115 -115 -200 -115 -199 0 -231 0 -230 115 -200 115 -199 200 -116 200 -115z"/>
  <path class="fil1 str0" d="M1390 4021l231 0 230 0 200 -115 199 -116 116 -199 115 -200 0 -230 0 -231 -115 -199 -116 -200 -199 -115 -200 -115 -230 0 -231 0 -199 115 -200 115 -115 200 -115 199 0 231 0 230 115 200 115 199 200 116 199 115z"/>
  <path class="fil1 str0" d="M2646 4021l231 0 230 0 200 -115 200 -116 115 -199 115 -200 0 -230 0 -231 -115 -199 -115 -200 -200 -115 -200 -115 -230 0 -231 0 -199 115 -200 115 -115 200 -115 199 0 231 0 230 115 200 115 199 200 116 199 115z"/>
  <path class="fil1 str0" d="M1390 124l231 0 230 0 200 115 199 115 116 200 115 199 0 231 0 230 -115 200 -116 200 -199 115 -200 115 -230 0 -231 0 -199 -115 -200 -115 -115 -200 -115 -200 0 -230 0 -231 115 -199 115 -200 200 -115 199 -115z"/>
  <path class="fil1 str0" d="M2646 124l231 0 230 0 200 115 200 115 115 200 115 199 0 231 0 230 -115 200 -115 200 -200 115 -200 115 -230 0 -231 0 -199 -115 -200 -115 -115 -200 -115 -200 0 -230 0 -231 115 -199 115 -200 200 -115 199 -115z"/>
  <path class="fil1 str0" d="M3275 1213l230 0 231 0 199 115 200 116 115 199 115 200 0 230 0 231 -115 199 -115 200 -200 115 -199 116 -231 0 -230 0 -200 -116 -199 -115 -116 -200 -115 -199 0 -231 0 -230 115 -200 116 -199 199 -116 200 -115z"/>
  <path class="fil1 str0" d="M2018 1213l231 0 230 0 200 115 200 116 115 199 115 200 0 230 0 231 -115 199 -115 200 -200 115 -200 116 -230 -1 -231 1 -199 -116 -200 -115 -115 -200 -115 -199 0 -231 0 -230 115 -200 115 -199 200 -116 199 -115z"/>
  <path class="fil2 str0" d="M1621 527l198 114 198 114 0 229 0 228 -198 115 -198 114 -198 -114 -198 -115 0 -228 0 -229 198 -114 198 -114z"/>
  <path class="fil1 str0" d="M1621 527l230 -403"/>
  <path class="fil1 str0" d="M1621 527l-231 -403"/>
  <path class="fil1 str0" d="M991 354l234 401"/>
  <path class="fil1 str0" d="M991 1613l234 -401"/>
  <path class="fil1 str0" d="M2017 755l464 0"/>
  <path class="fil1 str0" d="M1224 755l-463 0"/>
  <path class="fil2 str0" d="M2877 527l198 114 198 114 0 229 0 228 -198 115 -198 114 -198 -114 -198 -115 0 -228 0 -229 198 -114 198 -114z"/>
  <path class="fil1 str0" d="M2877 527l230 -403"/>
  <path class="fil1 str0" d="M2877 527l-231 -403"/>
  <path class="fil1 str0" d="M3507 1613l-234 -401"/>
  <path class="fil1 str0" d="M3273 755l464 0"/>
  <path class="fil1 str0" d="M3507 354l-233 401"/>
  <path class="fil3 str0" d="M993 1616l198 114 198 115 0 228 0 229 -198 114 -198 115 -198 -115 -198 -114 0 -229 0 -228 198 -115 198 -114z"/>
  <path class="fil1 str0" d="M363 1444l234 401"/>
  <path class="fil1 str0" d="M993 2530l231 403"/>
  <path class="fil1 str0" d="M363 2702l234 -401"/>
  <path class="fil1 str0" d="M597 1845l-464 0"/>
  <path class="fil1 str0" d="M597 2303l-464 0"/>
  <path class="fil3 str0" d="M2249 1616l198 114 198 114 0 229 0 228 -198 115 -198 114 -198 -114 -198 -115 0 -228 0 -229 198 -114 198 -114z"/>
  <path class="fil3 str0" d="M3505 1616l198 114 198 115 0 228 0 229 -198 114 -198 115 -198 -115 -198 -114 0 -229 0 -228 198 -115 198 -114z"/>
  <path class="fil1 str0" d="M4135 2702l-234 -401"/>
  <path class="fil1 str0" d="M3505 2530l-230 403"/>
  <path class="fil1 str0" d="M3901 1845l465 0"/>
  <path class="fil1 str0" d="M3901 2303l465 0"/>
  <path class="fil1 str0" d="M4136 1444l-234 401"/>
  <path class="fil4 str0" d="M1621 3618l198 -114 198 -115 0 -228 0 -229 -198 -114 -198 -114 -198 114 -198 114 0 229 0 228 198 115 198 114z"/>
  <path class="fil1 str0" d="M1621 3618l230 403"/>
  <path class="fil1 str0" d="M1621 3618l-231 403"/>
  <path class="fil1 str0" d="M991 3791l234 -402"/>
  <path class="fil1 str0" d="M2017 3389l464 0"/>
  <path class="fil1 str0" d="M1224 3389l-463 0"/>
  <path class="fil4 str0" d="M2877 3618l198 -114 198 -115 0 -228 0 -229 -198 -114 -198 -114 -198 114 -198 114 0 229 0 228 198 115 198 114z"/>
  <path class="fil1 str0" d="M2877 3618l230 403"/>
  <path class="fil1 str0" d="M2877 3618l-231 403"/>
  <path class="fil1 str0" d="M3273 3389l464 0"/>
  <path class="fil1 str0" d="M3507 3791l-233 -402"/>
 </g>
</svg>
